<?xml version="1.0" encoding="utf-8"?>
<!DOCTYPE svg PUBLIC "-//W3C//DTD SVG 1.0//EN" "http://www.w3.org/TR/2001/REC-SVG-20010904/DTD/svg10.dtd">
<svg version="1.0" xmlns="http://www.w3.org/2000/svg" width="35px" height="35px" viewBox="0 0 35 35" preserveAspectRatio="xMidYMid meet">
 <g fill="#ffe9a8">
  <path d="M9.5 26.5 c-7.7 -11.9 -6.8 -14.8 6.3 -21.4 2.4 -1.2 5 -2 5.8 -1.7 2.1 0.8 9.4 12.6 9.4 15.2 0 1.2 -0.3 3 -0.6 3.8 -0.7 1.9 -13.5 9.6 -15.8 9.6 -0.9 0 -3.2 -2.5 -5.1 -5.5z m12.2 -3.5 c3 -2.3 2 -3 -4.3 -3 l-5.3 0 1.6 2.9 c1.8 3.1 4 3.1 8 0.1z"/>
 </g>
 <g fill="#ffc865">
  <path d="M11.7 27.3 c-3.9 -6.2 -5.7 -10.1 -5.7 -12.3 0 -2.5 1.6 -2.6 2.9 -0.1 0.9 1.6 2.2 1.9 8.5 1.8 6.5 -0.1 7.8 0.1 9.6 2 1.1 1.2 2 2.6 2 3.1 0 1.3 -6.6 6.2 -8.3 6.2 -0.8 0 -2 0.7 -2.7 1.5 -2 2.4 -3.8 1.8 -6.3 -2.2z"/>
 </g>
</svg>